<svg xmlns="http://www.w3.org/2000/svg" width="48" height="48" viewBox="0 0 48 48"><path fill-rule="evenodd" d="M13.47 13.5c0-5.79 4.71-10.5 10.5-10.5s10.5 4.71 10.5 10.5S29.76 24 23.97 24s-10.5-4.71-10.5-10.5m17.4 0a6.901 6.901 0 0 0-13.8 0c0 3.81 3.09 6.9 6.9 6.9s6.9-3.09 6.9-6.9" clip-rule="evenodd"/><path fill-rule="evenodd" d="M38.76 45h3.6v-5.91c0-6.84-5.19-12.39-11.55-12.39H17.28c-6.36 0-11.55 5.55-11.55 12.39V45h3.6v-5.91c0-4.83 3.57-8.79 7.95-8.79h13.53c4.38 0 7.95 3.93 7.95 8.79z"/></svg>