<svg xmlns="http://www.w3.org/2000/svg" width="48" height="48" viewBox="0 0 48 48"><path fill-rule="evenodd" d="M23.97 3c-5.79 0-10.5 4.71-10.5 10.5S18.18 24 23.97 24s10.5-4.71 10.5-10.5S29.76 3 23.97 3m0 3.6a6.901 6.901 0 0 1 0 13.8 6.901 6.901 0 0 1 0-13.8" clip-rule="evenodd"/><path fill-rule="evenodd" d="m30.69 47.07-8.97-8.97 2.55-2.55 6.42 6.42 12.03-12.03 2.55 2.55z"/><path fill-rule="evenodd" d="M5.76 45h3.6v-5.91c0-4.83 3.57-8.79 7.95-8.79h15.81v-3.6H17.31c-6.36 0-11.55 5.55-11.55 12.39z"/></svg>