<svg xmlns="http://www.w3.org/2000/svg" width="48" height="48" viewBox="0 0 48 48"><path fill-rule="evenodd" d="M44.588 19.278a3.49 3.49 0 0 0-2.647-1.217h-3.72L29.133 3l-3.077 1.86 7.978 13.237H13.929L21.943 4.86 18.866 3 9.743 18.061H6.094a3.49 3.49 0 0 0-2.647 1.217c-.716.823-1.038 1.931-.894 3.04L5.307 41.78C5.557 43.605 7.096 45 8.85 45h30.23c1.789 0 3.363-1.395 3.613-3.255l2.755-19.462c.143-1.11-.179-2.218-.894-3.041zm-5.473 22.18-30.23-.143L6.13 21.64l35.811.179-2.862 19.604z" clip-rule="evenodd"/></svg>