<svg xmlns="http://www.w3.org/2000/svg" width="48" height="48" viewBox="0 0 48 48"><path fill-rule="evenodd" d="M45 24c0-11.61-9.39-21-21-21S3 12.39 3 24c0 10.98 8.43 19.98 19.17 20.91a18 18 0 0 0 3.6 0c10.77-.9 19.2-9.93 19.2-20.91zM24.6 41.97c-.21 0-.39.03-.6.03s-.42 0-.63-.03C21.45 40.14 18.3 35.61 18 25.5h12c-.3 10.11-3.45 14.64-5.37 16.47zM41.91 22.5h-8.94c-.21-7.77-1.98-12.69-3.9-15.75C36.06 8.82 41.28 15 41.91 22.5M24.69 6.03c1.89 1.8 5.01 6.33 5.31 16.47H18c.27-10.11 3.42-14.64 5.28-16.47.24 0 .48-.03.72-.03s.45 0 .69.03m-5.79.72c-1.92 3.06-3.69 7.98-3.9 15.75H6.09C6.72 15 11.94 8.82 18.9 6.75M6.09 25.5H15c.21 7.83 2.1 12.78 3.99 15.78-7.02-2.04-12.3-8.25-12.93-15.78zm22.89 15.78c1.92-3 3.78-7.95 4.02-15.78h8.94c-.63 7.53-5.91 13.74-12.96 15.78"/></svg>